<svg width="64" height="64" viewBox="0 0 64 64" fill="none" xmlns="http://www.w3.org/2000/svg">
<g clip-path="url(#clip0_1_99)">
<path d="M55.1752 64H8.82483C3.97198 64 0 60.028 0 55.1752V8.82482C0 3.97197 3.97198 0 8.82483 0H55.1912C60.0441 0 64.0161 3.97197 64.0161 8.82482V55.1912C64.0001 60.028 60.0281 64 55.1752 64Z" fill="url(#paint0_linear_1_99)"/>
<path d="M38.5826 40.4404C39.1912 39.8478 39.1912 38.8548 38.5986 38.2623L36.7568 36.3884L34.5626 38.5505L36.4044 40.4244C36.997 41.017 37.974 41.033 38.5826 40.4404Z" fill="white"/>
<path d="M25.4174 38.038C24.8088 38.6306 24.8088 39.6236 25.4014 40.2162C25.994 40.8248 26.987 40.8248 27.5796 40.2322L29.3414 38.5025L27.1792 36.3083L25.4174 38.038Z" fill="white"/>
<path d="M53.4775 32.032C53.4775 20.1802 43.8679 10.5546 32 10.5546C20.1321 10.5546 10.5225 20.1802 10.5225 32.032C10.5225 43.2433 19.1231 52.4525 30.0941 53.4134V42.939L29.7257 43.3073C27.6757 45.3253 24.3444 45.2933 22.3263 43.2433C20.3083 41.1932 20.3403 37.8619 22.3904 35.8439L32.0481 26.3303L41.6577 36.1001C43.7718 38.2463 43.6437 41.8178 41.2733 43.7878C39.1752 45.5496 36.036 45.3253 34.1141 43.3554L33.6977 42.9229V53.4134C44.7648 52.5646 53.4775 43.3073 53.4775 32.032Z" fill="white"/>
<path d="M32.0113 31.5527L29.8077 33.7202L31.9751 35.9238L34.1788 33.7563L32.0113 31.5527Z" fill="white"/>
<path d="M27.5796 40.2322C26.971 40.8248 25.994 40.8248 25.4014 40.2162C24.8088 39.6076 24.8088 38.6306 25.4174 38.038L27.1792 36.3083L29.3413 38.5025L27.5796 40.2322ZM36.7728 36.3884L38.6146 38.2623C39.2072 38.8709 39.2072 39.8479 38.5986 40.4404C37.99 41.033 37.013 41.033 36.4204 40.4244L34.5786 38.5506L36.7728 36.3884ZM31.984 35.9239L29.8218 33.7297L32.016 31.5676L34.1782 33.7618L31.984 35.9239Z" fill="white"/>
</g>
<defs>
<linearGradient id="paint0_linear_1_99" x1="31.999" y1="63.998" x2="31.999" y2="0" gradientUnits="userSpaceOnUse">
<stop stop-color="#71CD11"/>
<stop offset="1" stop-color="#10AFE9"/>
</linearGradient>
<clipPath id="clip0_1_99">
<rect width="64" height="64" rx="16" fill="white"/>
</clipPath>
</defs>
</svg>
